#!OML:ASF F:\VICON\USERDATA\INSTALL\rory3\rory3.ASF
:FULLY-SPECIFIED
:DEGREES
689
root 4.56232 17.3593 2.42631 5.61057 -11.0314 -5.73773
lowerback 12.2577 -0.154384 3.94146
upperback 4.97502 0.252642 1.43475
thorax -1.64695 0.142007 -0.761576
lowerneck -12.3708 -0.188964 -2.21844
upperneck 36.0997 0.36811 -0.475502
head 14.4842 -0.261478 0.242661
rclavicle -5.46658e-016 -8.84592e-015
rhumerus -33.2024 -2.73381 -16.8077
rradius 36.1131
rwrist 8.34901
rhand -21.1496 -44.5767
rfingers 7.12502
rthumb 5.2299 -74.4922
lclavicle -5.46658e-016 -8.84592e-015
lhumerus -32.3594 3.80924 13.2843
lradius 28.6128
lwrist 10.0711
lhand -24.8333 -33.3821
lfingers 7.12502
lthumb 1.6726 -3.40892
rfemur -100.273 2.38848 27.8503
rtibia 98.2579
rfoot 48.7837 2.93039
rtoes -3.13826
lfemur -19.0605 0.608343 -23.2418
ltibia 31.222
lfoot -14.3547 8.20226
ltoes 11.1617
690
root 4.56399 17.3586 2.42884 5.61127 -11.0588 -5.80435
lowerback 12.2783 -0.148386 4.0106
upperback 4.93773 0.271526 1.45932
thorax -1.69574 0.15069 -0.777487
lowerneck -12.2254 -0.167126 -2.22438
upperneck 36.0775 0.405241 -0.498459
head 14.4402 -0.248998 0.240079
rclavicle 1.4561e-014 1.95803e-014
rhumerus -33.236 -2.56387 -16.8025
rradius 36.1629
rwrist 8.13586
rhand -21.1246 -44.4149
rfingers 7.12502
rthumb 5.25407 -74.3298
lclavicle 1.4561e-014 1.95803e-014
lhumerus -32.4391 3.44175 13.4442
lradius 27.6034
lwrist 8.43713
lhand -26.9559 -40.611
lfingers 7.12502
lthumb -0.377507 -10.6316
rfemur -100.239 2.41992 27.903
rtibia 98.2339
rfoot 48.771 2.8238
rtoes -3.42032
lfemur -19.0626 0.632051 -23.1795
ltibia 31.2405
lfoot -14.3753 8.23992
ltoes 10.5267
691
root 4.56244 17.3592 2.42636 5.67704 -11.1389 -5.87207
lowerback 12.2504 -0.125259 4.03912
upperback 4.90405 0.305118 1.4649
thorax -1.71418 0.166953 -0.792212
lowerneck -12.0889 -0.129455 -2.15927
upperneck 36.0531 0.463107 -0.568761
head 14.3974 -0.224486 0.208625
rclavicle -1.5207e-014 -1.2921e-015
rhumerus -33.2077 -2.63943 -16.8072
rradius 36.049
rwrist 8.14038
rhand -21.4051 -44.1039
rfingers 7.12502
rthumb 4.98325 -74.0253
lclavicle -1.5207e-014 -1.2921e-015
lhumerus -32.339 3.59851 13.2928
lradius 28.3618
lwrist 9.5722
lhand -24.9765 -36.2278
lfingers 7.12502
lthumb 1.53429 -6.25357
rfemur -100.26 2.59258 27.9324
rtibia 98.1572
rfoot 48.7864 2.96069
rtoes -3.92609
lfemur -19.1176 0.703484 -23.1
ltibia 31.2348
lfoot -14.441 8.18037
ltoes 11.4532
692
root 4.55993 17.3651 2.42379 5.73149 -11.2083 -5.96497
lowerback 12.2152 -0.104165 4.06902
upperback 4.89944 0.334926 1.48502
thorax -1.69846 0.182029 -0.791971
lowerneck -12.098 -0.125963 -2.17671
upperneck 36.0631 0.446906 -0.496794
head 14.4037 -0.224533 0.238612
rclavicle 1.08338e-014 -4.77083e-015
rhumerus -33.143 -2.78372 -16.8139
rradius 35.9509
rwrist 8.26083
rhand -21.5344 -44.0037
rfingers 7.12502
rthumb 4.85837 -73.928
lclavicle 1.08338e-014 -4.77083e-015
lhumerus -32.3775 3.48715 13.2957
lradius 28.7856
lwrist 10.0652
lhand -24.5616 -33.3633
lfingers 7.12502
lthumb 1.93499 -3.39232
rfemur -100.215 2.77415 27.9864
rtibia 98.0727
rfoot 48.7266 2.96625
rtoes -4.35974
lfemur -19.1469 0.676729 -22.974
ltibia 31.21
lfoot -14.4512 8.19553
ltoes 12.3907
693
root 4.56033 17.3699 2.4277 5.73313 -11.2065 -5.97866
lowerback 12.1601 -0.103466 4.09488
upperback 4.92742 0.334657 1.48841
thorax -1.63911 0.183397 -0.802686
lowerneck -12.2016 -0.136177 -2.22949
upperneck 36.1157 0.418774 -0.409378
head 14.4517 -0.232847 0.279446
rclavicle 3.98066e-014 1.2921e-014
rhumerus -33.1266 -2.7953 -16.8331
rradius 35.9619
rwrist 8.21397
rhand -21.484 -44.0341
rfingers 7.12502
rthumb 4.90698 -73.9573
lclavicle 3.98066e-014 1.2921e-014
lhumerus -32.4079 3.38695 13.3399
lradius 28.9044
lwrist 10.2802
lhand -24.5576 -32.7287
lfingers 7.12502
lthumb 1.93886 -2.75781
rfemur -100.141 2.76789 28.0049
rtibia 98.0596
rfoot 48.6342 2.79402
rtoes -4.34621
lfemur -19.1012 0.62459 -22.9549
ltibia 31.1611
lfoot -14.5426 8.2042
ltoes 12.7303
694
root 4.56101 17.3709 2.43521 5.69498 -11.2455 -5.95364
lowerback 12.0913 -0.0727076 4.12096
upperback 4.96723 0.372218 1.47291
thorax -1.55814 0.204246 -0.838031
lowerneck -12.1784 -0.16335 -2.30722
upperneck 36.1512 0.380927 -0.355451
head 14.4633 -0.252445 0.309543
rclavicle -1.47598e-014 -1.39149e-015
rhumerus -33.1933 -2.80098 -16.8227
rradius 36.0061
rwrist 8.12269
rhand -21.4335 -44.2981
rfingers 7.12502
rthumb 4.95582 -74.2201
lclavicle -1.47598e-014 -1.39149e-015
lhumerus -32.3292 3.38188 13.3704
lradius 28.9405
lwrist 10.4069
lhand -24.4632 -32.2872
lfingers 7.12502
lthumb 2.03002 -2.31707
rfemur -100.045 2.76555 27.9986
rtibia 98.1109
rfoot 48.5641 2.90355
rtoes -4.35359
lfemur -18.9945 0.688236 -22.9993
ltibia 31.1151
lfoot -14.6722 8.19181
ltoes 12.8307
695
root 4.55997 17.3718 2.4441 5.63752 -11.259 -5.92018
lowerback 12.042 -0.0583809 4.1037
upperback 4.97446 0.38601 1.46355
thorax -1.5234 0.211718 -0.839669
lowerneck -12.0784 -0.194164 -2.32596
upperneck 36.1943 0.351237 -0.394342
head 14.4613 -0.273269 0.292239
rclavicle -8.69683e-015 -3.08116e-015
rhumerus -33.2309 -2.77109 -16.8199
rradius 35.9702
rwrist 8.10077
rhand -21.8722 -44.2473
rfingers 7.12502
rthumb 4.53218 -74.1789
lclavicle -8.69683e-015 -3.08116e-015
lhumerus -32.3018 3.28031 13.3999
lradius 28.9766
lwrist 10.6557
lhand -24.7031 -31.5284
lfingers 7.12502
lthumb 1.79831 -1.55625
rfemur -99.9503 2.76679 27.9892
rtibia 98.2042
rfoot 48.4976 3.2252
rtoes -4.55435
lfemur -18.8756 0.708712 -23.037
ltibia 31.0887
lfoot -14.6289 8.18083
ltoes 12.8514
696
root 4.55832 17.3681 2.45128 5.61973 -11.1923 -5.9264
lowerback 12.0157 -0.0901903 4.10537
upperback 5.00584 0.341801 1.47092
thorax -1.4783 0.190794 -0.827013
lowerneck -12.2711 -0.182684 -2.23107
upperneck 36.3043 0.39771 -0.528103
head 14.5575 -0.26027 0.227455
rclavicle 6.70898e-015 -2.88238e-015
rhumerus -33.1725 -2.84711 -16.8473
rradius 35.8773
rwrist 8.20399
rhand -22.3459 -43.8117
rfingers 7.12502
rthumb 4.07471 -73.7525
lclavicle 6.70898e-015 -2.88238e-015
lhumerus -32.3313 3.31595 13.3975
lradius 28.8209
lwrist 10.5991
lhand -25.6123 -31.9512
lfingers 7.12502
lthumb 0.920168 -1.97341
rfemur -99.9494 2.7158 28.0309
rtibia 98.2875
rfoot 48.4931 3.39132
rtoes -4.42698
lfemur -18.8116 0.819513 -23.0233
ltibia 31.0505
lfoot -14.5919 7.94804
ltoes 12.9725
697
root 4.56013 17.3657 2.45222 5.60351 -11.2111 -5.9763
lowerback 12.0673 -0.097484 4.17663
upperback 5.04491 0.341148 1.47529
thorax -1.46464 0.191722 -0.862419
lowerneck -12.4631 -0.152835 -2.18784
upperneck 36.3651 0.450833 -0.565192
head 14.6302 -0.237807 0.212719
rclavicle 1.58531e-014 -1.12313e-014
rhumerus -33.0492 -3.0484 -16.8436
rradius 35.7153
rwrist 8.2589
rhand -22.3535 -43.5579
rfingers 7.12502
rthumb 4.06743 -73.4988
lclavicle 1.58531e-014 -1.12313e-014
lhumerus -32.3293 3.44987 13.3744
lradius 28.5716
lwrist 10.2325
lhand -26.1143 -32.5245
lfingers 7.12502
lthumb 0.435345 -2.54521
rfemur -99.8986 2.73216 28.1072
rtibia 98.2884
rfoot 48.4976 3.36993
rtoes -3.76358
lfemur -18.7567 1.00252 -22.9777
ltibia 30.9837
lfoot -14.6366 7.77246
ltoes 12.7328
698
root 4.56478 17.3707 2.45306 5.5181 -11.2405 -5.85405
lowerback 12.1598 -0.0864457 4.12467
upperback 4.99982 0.356015 1.43644
thorax -1.56155 0.196808 -0.876037
lowerneck -12.3225 -0.159428 -2.20327
upperneck 36.4048 0.456053 -0.606803
head 14.6168 -0.243517 0.198996
rclavicle -6.16232e-015 -2.01766e-014
rhumerus -32.9938 -3.08446 -16.7743
rradius 35.4703
rwrist 8.26458
rhand -22.3295 -43.2933
rfingers 7.12502
rthumb 4.0906 -73.2338
lclavicle -6.16232e-015 -2.01766e-014
lhumerus -32.2695 3.29278 13.4004
lradius 28.7796
lwrist 10.6259
lhand -25.3943 -30.6253
lfingers 7.12502
lthumb 1.13075 -0.648516
rfemur -99.7894 2.6586 28.02
rtibia 98.2913
rfoot 48.3303 3.39502
rtoes -3.5387
lfemur -18.6335 0.979744 -23.1318
ltibia 30.9182
lfoot -14.5604 7.90477
ltoes 11.9789
699
root 4.56602 17.3738 2.45776 5.46474 -11.206 -5.70301
lowerback 12.1664 -0.0986411 4.00979
upperback 4.91728 0.330121 1.39486
thorax -1.65362 0.180959 -0.851625
lowerneck -12.0618 -0.161617 -2.20241
upperneck 36.4009 0.459338 -0.652658
head 14.5552 -0.247865 0.180368
rclavicle 2.18166e-014 6.75868e-015
rhumerus -32.9997 -2.94212 -16.7538
rradius 35.2695
rwrist 8.41955
rhand -22.3636 -43.1231
rfingers 7.12502
rthumb 4.05771 -73.0642
lclavicle 2.18166e-014 6.75868e-015
lhumerus -32.2466 3.05713 13.4066
lradius 29.0542
lwrist 11.1601
lhand -24.9195 -29.4153
lfingers 7.12502
lthumb 1.58927 0.558542
rfemur -99.7667 2.52928 27.9177
rtibia 98.3515
rfoot 47.9923 3.45613
rtoes -4.29036
lfemur -18.5305 0.869443 -23.3047
ltibia 30.8638
lfoot -14.4264 8.02722
ltoes 11.3867
